/* XPM */
static char * Erase_32x32_xpm[] = {
"32 32 404 2",
"  	c None",
". 	c #F5F6F5",
"+ 	c #FFFFFF",
"@ 	c #FBFFFB",
"# 	c #F8F8F8",
"$ 	c #EEEFEE",
"% 	c #F6FFF6",
"& 	c #F1FFF1",
"* 	c #F9FFF9",
"= 	c #2FB22F",
"- 	c #008D00",
"; 	c #008800",
"> 	c #E9FAED",
", 	c #E5F2E4",
"' 	c #E0F0E0",
") 	c #DBEEDB",
"! 	c #D6EBD6",
"~ 	c #D2E9D2",
"{ 	c #CCE6CC",
"] 	c #F1F8F1",
"^ 	c #70B66D",
"/ 	c #007700",
"( 	c #009E00",
"_ 	c #00A900",
": 	c #008200",
"< 	c #ADE3AD",
"[ 	c #FCFFFF",
"} 	c #F4FFFF",
"| 	c #DEFCED",
"1 	c #CAECD1",
"2 	c #CFE7CD",
"3 	c #C9E5C9",
"4 	c #C5E3C5",
"5 	c #C0E1C0",
"6 	c #BBDEBB",
"7 	c #CFE8CD",
"8 	c #90D699",
"9 	c #006F00",
"0 	c #3C3E00",
"a 	c #007400",
"b 	c #00A500",
"c 	c #009C00",
"d 	c #83D583",
"e 	c #50B050",
"f 	c #66BD72",
"g 	c #DFE6DC",
"h 	c #F1939C",
"i 	c #E49092",
"j 	c #CBF2DD",
"k 	c #B5F6CD",
"l 	c #B8DBB4",
"m 	c #B3DBB3",
"n 	c #AED8AE",
"o 	c #ABD6AA",
"p 	c #A2DEA9",
"q 	c #8CE6B0",
"r 	c #89341B",
"s 	c #EE0000",
"t 	c #751C00",
"u 	c #008100",
"v 	c #00A400",
"w 	c #CDF3DA",
"x 	c #B8D6BA",
"y 	c #E5BCB9",
"z 	c #E26F72",
"A 	c #CC1518",
"B 	c #CB3132",
"C 	c #ABC2A4",
"D 	c #A0FAC4",
"E 	c #A3D29F",
"F 	c #9FD09D",
"G 	c #92D598",
"H 	c #7DCF92",
"I 	c #C9B7AB",
"J 	c #F23748",
"K 	c #C50000",
"L 	c #EB0000",
"M 	c #6F1E00",
"N 	c #008400",
"O 	c #00A100",
"P 	c #BFDCBE",
"Q 	c #E1FFE0",
"R 	c #A9E3B6",
"S 	c #BBD2B9",
"T 	c #F3AFB5",
"U 	c #F6B1B5",
"V 	c #EFC7C6",
"W 	c #E8A8A7",
"X 	c #D83B3E",
"Y 	c #C20306",
"Z 	c #89976E",
"` 	c #87F1AD",
" .	c #87D28B",
"..	c #70C986",
"+.	c #B69182",
"@.	c #F7838E",
"#.	c #DD6566",
"$.	c #BB0000",
"%.	c #C60000",
"&.	c #EC0000",
"*.	c #6E1F00",
"=.	c #008600",
"-.	c #00AB00",
";.	c #A2DCAA",
">.	c #AFC7A9",
",.	c #E9A1A4",
"'.	c #F19BA0",
").	c #E59A9A",
"!.	c #E59494",
"~.	c #E79C9C",
"{.	c #ECB3B3",
"].	c #EA646B",
"^.	c #BC0000",
"/.	c #6B8B55",
"(.	c #5CDE91",
"_.	c #B08774",
":.	c #F1626F",
"<.	c #E07475",
"[.	c #DD7979",
"}.	c #C51010",
"|.	c #BA0000",
"1.	c #C70000",
"2.	c #6B2000",
"3.	c #00B200",
"4.	c #A9D8A9",
"5.	c #ABF0B1",
"6.	c #9DC69B",
"7.	c #ED8F98",
"8.	c #F58B93",
"9.	c #E0908E",
"0.	c #E28A8A",
"a.	c #E18585",
"b.	c #DF8080",
"c.	c #DE7979",
"d.	c #E29291",
"e.	c #EF686F",
"f.	c #AA0E08",
"g.	c #9E5D4C",
"h.	c #ED6D75",
"i.	c #DE6A6B",
"j.	c #D65F5E",
"k.	c #CA2D2D",
"l.	c #C00606",
"m.	c #BF0000",
"n.	c #BE0000",
"o.	c #C30000",
"p.	c #FF0000",
"q.	c #602900",
"r.	c #00A800",
"s.	c #009100",
"t.	c #C4FFC4",
"u.	c #A2DAA4",
"v.	c #92D098",
"w.	c #BD998B",
"x.	c #F67382",
"y.	c #E47B7C",
"z.	c #DC7978",
"A.	c #DD7373",
"B.	c #DC6F6F",
"C.	c #DA6A6A",
"D.	c #D86363",
"E.	c #DA7473",
"F.	c #E05055",
"G.	c #D70A12",
"H.	c #D55151",
"I.	c #D04645",
"J.	c #C20B0B",
"K.	c #C00000",
"L.	c #E40000",
"M.	c #B80000",
"N.	c #2A5F00",
"O.	c #009800",
"P.	c #00AD00",
"Q.	c #35C035",
"R.	c #4FAF4E",
"S.	c #61C166",
"T.	c #61C576",
"U.	c #B18C7E",
"V.	c #FF637A",
"W.	c #E46D6F",
"X.	c #D76665",
"Y.	c #D85D5D",
"Z.	c #D65858",
"`.	c #D55353",
" +	c #D44D4D",
".+	c #DA6464",
"++	c #CF3636",
"@+	c #C10303",
"#+	c #C10000",
"$+	c #BD0000",
"%+	c #E50000",
"&+	c #0B6900",
"*+	c #00AA00",
"=+	c #009600",
"-+	c #008700",
";+	c #008E00",
">+	c #099F0E",
",+	c #15A224",
"'+	c #785A38",
")+	c #F42D48",
"!+	c #DD4D51",
"~+	c #D15353",
"{+	c #D34F4F",
"]+	c #D14949",
"^+	c #D04545",
"/+	c #C82A2A",
"(+	c #C00D0D",
"_+	c #B90000",
":+	c #E00000",
"<+	c #B50000",
"[+	c #00A700",
"}+	c #009200",
"|+	c #089A00",
"1+	c #009D00",
"2+	c #009400",
"3+	c #008F00",
"4+	c #5A2300",
"5+	c #DD0009",
"6+	c #C21616",
"7+	c #BF2222",
"8+	c #C22A2A",
"9+	c #BC1414",
"0+	c #B30000",
"a+	c #B60000",
"b+	c #B10000",
"c+	c #D10000",
"d+	c #AE0200",
"e+	c #009300",
"f+	c #21B300",
"g+	c #019C00",
"h+	c #009500",
"i+	c #009F00",
"j+	c #432A00",
"k+	c #AF0000",
"l+	c #AD0000",
"m+	c #AC0000",
"n+	c #AE0000",
"o+	c #960800",
"p+	c #007000",
"q+	c #00AE00",
"r+	c #009900",
"s+	c #3AC300",
"t+	c #06A000",
"u+	c #00A000",
"v+	c #433000",
"w+	c #AB0000",
"x+	c #A70000",
"y+	c #8F0800",
"z+	c #006E00",
"A+	c #00B000",
"B+	c #009700",
"C+	c #52CC00",
"D+	c #14AB00",
"E+	c #009A00",
"F+	c #532900",
"G+	c #C40000",
"H+	c #A60000",
"I+	c #9F0000",
"J+	c #A00000",
"K+	c #9B0000",
"L+	c #9D0100",
"M+	c #0D6A00",
"N+	c #0EA700",
"O+	c #65C800",
"P+	c #34C300",
"Q+	c #00AC00",
"R+	c #4F2900",
"S+	c #A20000",
"T+	c #970000",
"U+	c #9A0000",
"V+	c #990000",
"W+	c #980000",
"X+	c #950000",
"Y+	c #0C6C00",
"Z+	c #06AA00",
"`+	c #2CAF00",
" @	c #6AEB00",
".@	c #00A200",
"+@	c #4B2B00",
"@@	c #900000",
"#@	c #930000",
"$@	c #920000",
"%@	c #910000",
"&@	c #8E0000",
"*@	c #0B6E00",
"=@	c #00B300",
"-@	c #23C500",
";@	c #A2FF00",
">@	c #0DB400",
",@	c #018C00",
"'@	c #532700",
")@	c #A90000",
"!@	c #890000",
"~@	c #8C0000",
"{@	c #8B0000",
"]@	c #880000",
"^@	c #8A0000",
"/@	c #870000",
"(@	c #A30000",
"_@	c #1B6300",
":@	c #58EE00",
"<@	c #9FFB00",
"[@	c #75F700",
"}@	c #007100",
"|@	c #860000",
"1@	c #800000",
"2@	c #840000",
"3@	c #810000",
"4@	c #6B0600",
"5@	c #4A1F00",
"6@	c #960000",
"7@	c #830000",
"8@	c #820000",
"9@	c #850000",
"0@	c #2A2400",
"a@	c #1AD200",
"b@	c #82F500",
"c@	c #E3FF04",
"d@	c #2ACB01",
"e@	c #005900",
"f@	c #7A0000",
"g@	c #7B0000",
"h@	c #7D0000",
"i@	c #087800",
"j@	c #442C00",
"k@	c #321F00",
"l@	c #98FF00",
"m@	c #91EF05",
"n@	c #F9FF32",
"o@	c #0CC80B",
"p@	c #005B00",
"q@	c #760000",
"r@	c #730000",
"s@	c #720000",
"t@	c #750000",
"u@	c #0A7000",
"v@	c #00BC00",
"w@	c #00BB00",
"x@	c #3F2900",
"y@	c #780000",
"z@	c #710000",
"A@	c #790000",
"B@	c #2E1F00",
"C@	c #8AFE02",
"D@	c #A0FE00",
"E@	c #DCFF2F",
"F@	c #F7FF73",
"G@	c #12CB0B",
"H@	c #6B0000",
"I@	c #00BF00",
"J@	c #00B800",
"K@	c #3D2900",
"L@	c #1D1A00",
"M@	c #00A70F",
"N@	c #9DFA29",
"O@	c #D4FF04",
"P@	c #F5FF69",
"Q@	c #FFFFB7",
"R@	c #3ADC24",
"S@	c #006200",
"T@	c #5E0000",
"U@	c #0B7200",
"V@	c #00C100",
"W@	c #3C2600",
"X@	c #171A00",
"Y@	c #12BB2D",
"Z@	c #D4FF6C",
"`@	c #F6FF20",
" #	c #E3FF8F",
".#	c #91F779",
"+#	c #327900",
"@#	c #006000",
"##	c #00A600",
"$#	c #00A300",
"%#	c #009000",
"&#	c #326505",
"*#	c #84D07F",
"=#	c #FFFFAF",
"-#	c #EBFF3A",
";#	c #A8F57F",
">#	c #FFFFF5",
",#	c #A0FA80",
"'#	c #57CC2B",
")#	c #21B900",
"!#	c #04B000",
"~#	c #01AF00",
"{#	c #1BB700",
"]#	c #4EC631",
"^#	c #A0EA8D",
"/#	c #FDFFF2",
"(#	c #FFFFD1",
"_#	c #A7F833",
":#	c #D3FFC4",
"<#	c #FFFFFA",
"[#	c #F4FFD1",
"}#	c #DFF9BC",
"|#	c #DEF9BD",
"1#	c #F2FFD5",
"2#	c #FFFFFC",
"3#	c #C7FF8D",
"4#	c #D1FBCB",
"5#	c #FAFFF5",
"6#	c #F5FFE9",
"7#	c #C8F9B6",
"                                                                ",
"                                                                ",
"                            . + @ #                             ",
"                    $ + + + + % & * + = - ;                     ",
"                  + + > , ' ) ! ~ { ] ^ / ( _ :                 ",
"              < + [ } | 1 2 3 4 5 6 7 8 9 0 a b c               ",
"            d e f g h i j k l m n o p q r s t u ( v             ",
"          + + w x y z A B C D E F G H I J K L M N O O           ",
"        P Q R S T U V W X Y Z `  ...+.@.#.$.%.&.*.=.-.=.        ",
"        Q ;.>.,.'.).!.~.{.].^./.(._.:.<.[.}.|.1.&.2.: 3.        ",
"      4.5.6.7.8.9.0.a.b.c.d.e.f.g.h.i.j.k.l.m.n.o.p.q.r.s.      ",
"      t.u.v.w.x.y.z.A.B.C.D.E.F.G.H.I.J.$.m.K.^.L.M.N.O.P.      ",
"      Q.R.S.T.U.V.W.X.Y.Z.`. +.+++@+K.n.#+#+$+%+M.&+v s.*+      ",
"      =+-+;+>+,+'+)+!+~+{+]+^+/+(+$.^.$+$+_+:+<+&+[+=+}+O       ",
"    |+1+2+}+3+=+; 4+5+6+7+8+9+0+0+a+<+<+b+c+d+&+_ O.e+2+c =+    ",
"    f+g+h+=+=+=+b i+j+K.k+l+m+n+k+n+n+n+#+o+p+q+r+h+=+=+c (     ",
"    s+t+h+O.O.O.r.u+v+$.w+x+x+x+x+x+x+x+_+y+z+A+c B+O.O.1+u+    ",
"    C+D+h+E+E+_ 1+F+G+H+I+J+J+J+J+J+J+I+K+|.L+M+A+( r+E+u+N+    ",
"    O+P+}+c Q+i+R+$+S+T+U+V+V+V+V+V+W+V+W+X+a+X+Y+3.u+O.Z+`+    ",
"       @}+_ .@+@<+K+@@#@$@$@$@$@$@%@$@%@%@%@&@n+&@*@=@O.-@      ",
"      ;@>@,@'@)@#@!@~@{@{@{@]@T+I+~@!@^@^@^@^@/@(@/@_@v :@      ",
"      <@[@}@|@(@1@2@2@2@2@3@U+4@5@6@!@3@7@7@8@3@9@k+0@a@b@      ",
"        c@d@e@f@#@g@h@h@f@$@h@i@P.j@T+3@f@g@f@1@6@k@1+l@        ",
"        m@n@o@p@q@{@r@s@!@t@u@v@w@r.x@&@y@z@A@&@B@1+C@D@        ",
"          E@F@G@p@H@8@3@z@u@I@Q+[+J@_ K@]@f@7@L@M@N@O@          ",
"            P@Q@R@S@T@t@U@V@q+_ r._ w@-.W@g@X@Y@Z@`@            ",
"               #+ .#+#@#A+[+v ##[+b $#q+%#&#*#=#-#              ",
"                ;#+ >#,#'#)#!#Q+Q+~#{#]#^#/#(#_#                ",
"                    :#+ + <#[#}#|#1#2#+ + 3#                    ",
"                          4#5#+ + 6#7#                          ",
"                                                                ",
"                                                                "};
