/* XPM */
static char * Reset_32x32_xpm[] = {
"32 32 685 2",
"  	c None",
". 	c #C3C3C1",
"+ 	c #B0B2AE",
"@ 	c #A8A8A6",
"# 	c #A9A9A7",
"$ 	c #ACACA8",
"% 	c #B0B0AD",
"& 	c #B5B5B3",
"* 	c #BBBBBA",
"= 	c #C4C4C2",
"- 	c #A0A09E",
"; 	c #888886",
"> 	c #908E8C",
", 	c #A7A7A4",
"' 	c #DDDCDA",
") 	c #EBEAE8",
"! 	c #E8E8E5",
"~ 	c #D0CECC",
"{ 	c #B1B0AD",
"] 	c #A2A2A0",
"^ 	c #AAAAA7",
"/ 	c #BDBDBB",
"( 	c #A4A4A2",
"_ 	c #81817E",
": 	c #ADACA9",
"< 	c #ECEBE9",
"[ 	c #EEF4F3",
"} 	c #DCE9EA",
"| 	c #BACCCB",
"1 	c #A9BCBC",
"2 	c #AABDBD",
"3 	c #BFD0D1",
"4 	c #E6F2F3",
"5 	c #FFFFFF",
"6 	c #E0E0DF",
"7 	c #ACACA9",
"8 	c #A4A4A1",
"9 	c #B8B8B5",
"0 	c #BCBCBA",
"a 	c #8C8C8A",
"b 	c #AFADAA",
"c 	c #F7F5F3",
"d 	c #D5E2E2",
"e 	c #799393",
"f 	c #313031",
"g 	c #000000",
"h 	c #282323",
"i 	c #6B8483",
"j 	c #D1E0E0",
"k 	c #D0CDCC",
"l 	c #A3A3A1",
"m 	c #B5B5B4",
"n 	c #81817F",
"o 	c #CAC6C4",
"p 	c #E8F1EF",
"q 	c #5D8282",
"r 	c #4C0000",
"s 	c #92403F",
"t 	c #B66E70",
"u 	c #C98D8D",
"v 	c #CD9C9C",
"w 	c #B56868",
"x 	c #8F3434",
"y 	c #580202",
"z 	c #3B6463",
"A 	c #D9E6E5",
"B 	c #E6E2DF",
"C 	c #ADADAA",
"D 	c #A7A9A6",
"E 	c #838380",
"F 	c #D9D6D3",
"G 	c #C1D3D1",
"H 	c #031F1F",
"I 	c #841A1B",
"J 	c #E4A4A4",
"K 	c #FFEDED",
"L 	c #F9E6E6",
"M 	c #FFF5F4",
"N 	c #EDB6B6",
"O 	c #963939",
"P 	c #010000",
"Q 	c #000606",
"R 	c #A4BCB9",
"S 	c #E9E7E5",
"T 	c #B4B3B0",
"U 	c #A3A3A0",
"V 	c #DCDCDA",
"W 	c #92908E",
"X 	c #DAD7D4",
"Y 	c #A2BDBB",
"Z 	c #520000",
"` 	c #DF7D7C",
" .	c #FDF7F6",
"..	c #FEFFFF",
"+.	c #EFE9E8",
"@.	c #E7DBDA",
"#.	c #E6E3E2",
"$.	c #E7C4C3",
"%.	c #E3ACAA",
"&.	c #E8DAD9",
"*.	c #EADFDE",
"=.	c #EEF4F4",
"-.	c #EEA8A8",
";.	c #E17B7C",
">.	c #6D0000",
",.	c #86ABA8",
"'.	c #F3F0ED",
").	c #B6B6B4",
"!.	c #989895",
"~.	c #AEAEAB",
"{.	c #D0CCC9",
"].	c #ACC4C3",
"^.	c #7C0000",
"/.	c #F69B9C",
"(.	c #F2F9F8",
"_.	c #EACFCE",
":.	c #E4B9B9",
"<.	c #E6BEBE",
"[.	c #E7CBCB",
"}.	c #E6B2B2",
"|.	c #E4A7A7",
"1.	c #E7D1D1",
"2.	c #E7C9CA",
"3.	c #E6CFD0",
"4.	c #E7BDBD",
"5.	c #DC5F5F",
"6.	c #E5A0A0",
"7.	c #F5FFFF",
"8.	c #F9B4B4",
"9.	c #8D0000",
"0.	c #A7C8C7",
"a.	c #F5EFED",
"b.	c #A8A8A5",
"c.	c #9D9D9B",
"d.	c #D5D5D3",
"e.	c #BBB8B6",
"f.	c #BFD3D1",
"g.	c #790000",
"h.	c #F88382",
"i.	c #EADDDE",
"j.	c #E5A8A9",
"k.	c #E6AAAA",
"l.	c #E5B9B9",
"m.	c #E4C7C8",
"n.	c #E5ABAC",
"o.	c #E49A9A",
"p.	c #E5B7B7",
"q.	c #E5B2B2",
"r.	c #E5BBBA",
"s.	c #E6B3B1",
"t.	c #E17272",
"u.	c #E5A4A6",
"v.	c #E7C5C5",
"w.	c #E5A5A5",
"x.	c #EAD7D7",
"y.	c #FB9B9B",
"z.	c #050707",
"A.	c #C4DFDD",
"B.	c #DEDBD9",
"C.	c #E5E5E3",
"D.	c #B5B5B2",
"E.	c #D7D8D5",
"F.	c #254848",
"G.	c #280000",
"H.	c #EC4848",
"I.	c #E2C0C0",
"J.	c #E59594",
"K.	c #E7A2A4",
"L.	c #E4AEAC",
"M.	c #E49393",
"N.	c #E45F5E",
"O.	c #DF3030",
"P.	c #E03434",
"Q.	c #DD2222",
"R.	c #DE1F1F",
"S.	c #E03131",
"T.	c #DC1E1C",
"U.	c #E14F4E",
"V.	c #E59D9F",
"W.	c #E3A9A9",
"X.	c #E6A7A5",
"Y.	c #E49292",
"Z.	c #E3C0BF",
"`.	c #F1605F",
" +	c #3E0000",
".+	c #314D4D",
"++	c #E9EFEC",
"@+	c #C1C1BF",
"#+	c #9D9D9A",
"$+	c #CDCAC8",
"%+	c #8DA5A3",
"&+	c #A20303",
"*+	c #DA8D8D",
"=+	c #E39191",
"-+	c #E49493",
";+	c #E1807F",
">+	c #DD3E3E",
",+	c #D80A0A",
"'+	c #D60000",
")+	c #DA0303",
"!+	c #D70303",
"~+	c #DA0606",
"{+	c #DB0608",
"]+	c #D70202",
"^+	c #DA0405",
"/+	c #D80405",
"(+	c #DC3635",
"_+	c #E07978",
":+	c #E49595",
"<+	c #E38D8D",
"[+	c #DB9999",
"}+	c #B00E0C",
"|+	c #070000",
"1+	c #9AB9B7",
"2+	c #E3E0DE",
"3+	c #F7F7F5",
"4+	c #33504F",
"5+	c #180000",
"6+	c #C43F3F",
"7+	c #DC8787",
"8+	c #DF5A5A",
"9+	c #D63131",
"0+	c #D30000",
"a+	c #CF0000",
"b+	c #D10000",
"c+	c #D40000",
"d+	c #DF1819",
"e+	c #D60101",
"f+	c #D20000",
"g+	c #DE1718",
"h+	c #DB0E0E",
"i+	c #CD0000",
"j+	c #D62B2A",
"k+	c #E05C5C",
"l+	c #E08484",
"m+	c #CC5150",
"n+	c #230000",
"o+	c #4E6867",
"p+	c #F0F2EF",
"q+	c #B4B4B1",
"r+	c #989896",
"s+	c #A09E9B",
"t+	c #B2BBB9",
"u+	c #0A0D0D",
"v+	c #540000",
"w+	c #C25151",
"x+	c #D96A6A",
"y+	c #D55252",
"z+	c #D94C4C",
"A+	c #C80A0B",
"B+	c #CE0202",
"C+	c #D53B3B",
"D+	c #DA504F",
"E+	c #E15556",
"F+	c #CC0101",
"G+	c #D63E3D",
"H+	c #DE6666",
"I+	c #CE0303",
"J+	c #D31817",
"K+	c #D34242",
"L+	c #DF5656",
"M+	c #D24444",
"N+	c #D73F3F",
"O+	c #CA2020",
"P+	c #D85C5B",
"Q+	c #DA7374",
"R+	c #C95656",
"S+	c #5D0000",
"T+	c #211919",
"U+	c #D1DEDC",
"V+	c #CBC9C7",
"W+	c #A1A19E",
"X+	c #AEAEAA",
"Y+	c #585A53",
"Z+	c #253732",
"`+	c #020000",
" @	c #770808",
".@	c #BE3232",
"+@	c #CF4241",
"@@	c #EDE8E8",
"#@	c #DBB6B6",
"$@	c #E6D8D6",
"%@	c #C43E3E",
"&@	c #F0E5E5",
"*@	c #E3D1D1",
"=@	c #D89A9B",
"-@	c #D06D6D",
";@	c #E0C7C7",
">@	c #DBCDCD",
",@	c #DA9392",
"'@	c #D17575",
")@	c #EFF8F8",
"!@	c #C58C8B",
"~@	c #D3B4B4",
"{@	c #ECE5E6",
"]@	c #D3BCBC",
"^@	c #C84040",
"/@	c #C73838",
"(@	c #7E0B0B",
"_@	c #A9BAB8",
":@	c #D5D5D2",
"<@	c #A2A29F",
"[@	c #93938F",
"}@	c #6B6C67",
"|@	c #0F211C",
"1@	c #7A1A1A",
"2@	c #B60806",
"3@	c #D23737",
"4@	c #E9DDDC",
"5@	c #9D1413",
"6@	c #E6D4D4",
"7@	c #D37C7C",
"8@	c #EFD9D9",
"9@	c #C65556",
"0@	c #A70404",
"a@	c #E8BEBD",
"b@	c #EFF3F3",
"c@	c #A51414",
"d@	c #BD3535",
"e@	c #EBA3A3",
"f@	c #E5D1D0",
"g@	c #AD1414",
"h@	c #CA0304",
"i@	c #C10E10",
"j@	c #E2E2E3",
"k@	c #C90000",
"l@	c #C32424",
"m@	c #7F1515",
"n@	c #91A3A2",
"o@	c #CCCCC9",
"p@	c #A6A8A4",
"q@	c #7C7C77",
"r@	c #9B9996",
"s@	c #1E2E2B",
"t@	c #6D0D0D",
"u@	c #AC0000",
"v@	c #CD2D2C",
"w@	c #EDF2F2",
"x@	c #E6D7D7",
"y@	c #DBB9B9",
"z@	c #B81313",
"A@	c #FBE9E9",
"B@	c #EDE4E4",
"C@	c #D9A2A4",
"D@	c #B80303",
"E@	c #E4B3B3",
"F@	c #EFE7E7",
"G@	c #BF292A",
"H@	c #DC6B6A",
"I@	c #F9F7F7",
"J@	c #E2D7D7",
"K@	c #D74B4C",
"L@	c #CC0000",
"M@	c #E1E7E7",
"N@	c #CD3637",
"O@	c #BA0A0A",
"P@	c #740607",
"Q@	c #839695",
"R@	c #B5B4B0",
"S@	c #848481",
"T@	c #9C9A99",
"U@	c #3C4A47",
"V@	c #5E0605",
"W@	c #A70000",
"X@	c #D23B38",
"Y@	c #ECE1E0",
"Z@	c #C24646",
"`@	c #EBCDCC",
" #	c #CD5959",
".#	c #F0DFDF",
"+#	c #C13E3E",
"@#	c #B30000",
"##	c #B82929",
"$#	c #CD5B5B",
"%#	c #EAFDFD",
"&#	c #D8AFAD",
"*#	c #E9B5B5",
"=#	c #A00101",
"-#	c #C70000",
";#	c #D42021",
">#	c #E2EFEE",
",#	c #C93E3E",
"'#	c #CB0000",
")#	c #B80B0A",
"!#	c #670303",
"~#	c #606E6D",
"{#	c #969692",
"]#	c #999996",
"^#	c #91918E",
"/#	c #7C7C78",
"(#	c #4D5756",
"_#	c #4D0605",
":#	c #9B0000",
"<#	c #CF4040",
"[#	c #E7E9E8",
"}#	c #AD0101",
"|#	c #E5D3D2",
"1#	c #CC8989",
"2#	c #EAE1E0",
"3#	c #EAC8C8",
"4#	c #DB8B8B",
"5#	c #D3AFAF",
"6#	c #EBF0F1",
"7#	c #D8ACAA",
"8#	c #DBA8A6",
"9#	c #D19090",
"0#	c #F1F8F8",
"a#	c #E4AEAE",
"b#	c #DB6666",
"c#	c #C01011",
"d#	c #EAFFFF",
"e#	c #C94241",
"f#	c #AE0A0A",
"g#	c #530403",
"h#	c #4A5655",
"i#	c #979793",
"j#	c #A0A19D",
"k#	c #959592",
"l#	c #65665E",
"m#	c #525B56",
"n#	c #340102",
"o#	c #8B0303",
"p#	c #C91818",
"q#	c #C54646",
"r#	c #C40A07",
"s#	c #C73E3E",
"t#	c #CA3737",
"u#	c #CD4443",
"v#	c #D77979",
"w#	c #DE7A7A",
"x#	c #C50606",
"y#	c #DC6768",
"z#	c #EA9E9E",
"A#	c #CB0405",
"B#	c #CE191A",
"C#	c #D16869",
"D#	c #DA8484",
"E#	c #D14C4C",
"F#	c #C60607",
"G#	c #C75050",
"H#	c #C41919",
"I#	c #CE0404",
"J#	c #970A0A",
"K#	c #3E0202",
"L#	c #3D4643",
"M#	c #A7A9A5",
"N#	c #878884",
"O#	c #686C67",
"P#	c #670E0D",
"Q#	c #C00606",
"R#	c #C30000",
"S#	c #C90B0A",
"T#	c #C50000",
"U#	c #CE0000",
"V#	c #CA0000",
"W#	c #DE0B0C",
"X#	c #DD0A0A",
"Y#	c #C40000",
"Z#	c #D00E0D",
"`#	c #BB0000",
" $	c #CA0504",
".$	c #C81111",
"+$	c #720B0C",
"@$	c #1F0000",
"#$	c #505752",
"$$	c #A9A8A5",
"%$	c #C6C6C5",
"&$	c #9B9C99",
"*$	c #90918E",
"=$	c #0E1715",
"-$	c #420606",
";$	c #9C0C0C",
">$	c #D31011",
",$	c #C50D0D",
"'$	c #C80B0A",
")$	c #CD0B0B",
"!$	c #D00D0D",
"~$	c #D41011",
"{$	c #D71213",
"]$	c #D71010",
"^$	c #D81111",
"/$	c #D91212",
"($	c #D71112",
"_$	c #D51011",
":$	c #D10E0E",
"<$	c #CD0B0C",
"[$	c #C70A08",
"}$	c #C60E0D",
"|$	c #D10E10",
"1$	c #AB100E",
"2$	c #4C0A0A",
"3$	c #040000",
"4$	c #040E0C",
"5$	c #787A76",
"6$	c #AAAAA8",
"7$	c #969793",
"8$	c #84857F",
"9$	c #5B6160",
"0$	c #210000",
"a$	c #640E0E",
"b$	c #C11111",
"c$	c #CF1011",
"d$	c #C41011",
"e$	c #C90C0B",
"f$	c #CC0A08",
"g$	c #CE080A",
"h$	c #D30B0C",
"i$	c #D40B0C",
"j$	c #D50B0B",
"k$	c #CD0A08",
"l$	c #C90B0B",
"m$	c #C41010",
"n$	c #CA1111",
"o$	c #C81010",
"p$	c #710E11",
"q$	c #280101",
"r$	c #25312C",
"s$	c #858380",
"t$	c #B3B3B1",
"u$	c #B2B2AF",
"v$	c #6C6D67",
"w$	c #82837F",
"x$	c #090E10",
"y$	c #330606",
"z$	c #831313",
"A$	c #CC1011",
"B$	c #C91213",
"C$	c #C41313",
"D$	c #C91111",
"E$	c #CC0E0D",
"F$	c #CD0C0C",
"G$	c #D00A0C",
"H$	c #D20A0A",
"I$	c #D00A0A",
"J$	c #CF0B0B",
"K$	c #CE0B0C",
"L$	c #CD0D0D",
"M$	c #C91110",
"N$	c #C51313",
"O$	c #C81112",
"P$	c #CE1010",
"Q$	c #901314",
"R$	c #3B0706",
"S$	c #000100",
"T$	c #5A5D56",
"U$	c #8F8D8D",
"V$	c #BDBBBA",
"W$	c #90908E",
"X$	c #787872",
"Y$	c #5C615E",
"Z$	c #090000",
"`$	c #410C0D",
" %	c #921717",
".%	c #CD1111",
"+%	c #CC1213",
"@%	c #C51414",
"#%	c #C81515",
"$%	c #CB1514",
"%%	c #CD1413",
"&%	c #CD1414",
"*%	c #C91514",
"=%	c #C61314",
"-%	c #CA1213",
";%	c #CF1112",
">%	c #9D1715",
",%	c #491011",
"'%	c #0F0000",
")%	c #282E29",
"!%	c #7D7D79",
"~%	c #BAB8BA",
"{%	c #80807D",
"]%	c #303533",
"^%	c #4D1212",
"/%	c #921A1A",
"(%	c #C71515",
"_%	c #D01717",
":%	c #CD1517",
"<%	c #CB1718",
"[%	c #CA1818",
"}%	c #CB1818",
"|%	c #CB1817",
"1%	c #CE1517",
"2%	c #D11515",
"3%	c #CA1515",
"4%	c #9C1A1A",
"5%	c #541515",
"6%	c #1C0000",
"7%	c #2B332F",
"8%	c #91918C",
"9%	c #858583",
"0%	c #B9B9B8",
"a%	c #787776",
"b%	c #7E7E7A",
"c%	c #202723",
"d%	c #190000",
"e%	c #491111",
"f%	c #7B1C1B",
"g%	c #AE1C1C",
"h%	c #C81B1A",
"i%	c #CF191A",
"j%	c #D2191A",
"k%	c #D11A1A",
"l%	c #D01919",
"m%	c #CA1A1A",
"n%	c #B31E1C",
"o%	c #841C1B",
"p%	c #511313",
"q%	c #BEBCBA",
"r%	c #C0C1BF",
"s%	c #AFAFAD",
"t%	c #7D7E7A",
"u%	c #2C3331",
"v%	c #060000",
"w%	c #360405",
"x%	c #5D1515",
"y%	c #801E1B",
"z%	c #9C2020",
"A%	c #AD2020",
"B%	c #B4201F",
"C%	c #B52020",
"D%	c #AF2020",
"E%	c #A02020",
"F%	c #851E1C",
"G%	c #601817",
"H%	c #3A0606",
"I%	c #525A58",
"J%	c #C8C8C6",
"K%	c #BAB8B6",
"L%	c #AFAFAB",
"M%	c #898987",
"N%	c #878783",
"O%	c #525653",
"P%	c #060B0C",
"Q%	c #2E0102",
"R%	c #4B0A0A",
"S%	c #5C1312",
"T%	c #661515",
"U%	c #671717",
"V%	c #601312",
"W%	c #4F0B0B",
"X%	c #310202",
"Y%	c #111818",
"Z%	c #868A88",
"`%	c #CDCDCB",
" &	c #B3B3AF",
".&	c #ABABA8",
"+&	c #C1C1C0",
"@&	c #969694",
"#&	c #8A8A89",
"$&	c #70736F",
"%&	c #404845",
"&&	c #111A19",
"*&	c #192020",
"=&	c #67726F",
"-&	c #B7B9B6",
";&	c #B0B0AC",
">&	c #C9C9C8",
",&	c #90908D",
"'&	c #8B8B87",
")&	c #7E817E",
"!&	c #5B615E",
"~&	c #3A4341",
"{&	c #273433",
"]&	c #162523",
"^&	c #152120",
"/&	c #243131",
"(&	c #4B5553",
"_&	c #878C89",
":&	c #B9BAB8",
"<&	c #C7C7C5",
"[&	c #A3A3A2",
"}&	c #C7C5C3",
"|&	c #B0AFAD",
"1&	c #9E9E9C",
"2&	c #9B9C98",
"3&	c #989995",
"4&	c #9A9A97",
"5&	c #939490",
"6&	c #979794",
"7&	c #ABABA7",
"8&	c #A5A5A3",
"9&	c #B1B1AF",
"0&	c #B7B7B6",
"a&	c #B4B4B2",
"b&	c #B6B6B5",
"                        . + @ # $ % & *                         ",
"                  = - ; > , = ' ) ! ~ { ] ^ /                   ",
"                ( _ : < [ } | 1 2 3 4 5 5 6 7 8 9               ",
"            0 a b c d e f g g g g g g h i j 5 k l +             ",
"          m n o p q g g r s t u v w x y g g z A B C D           ",
"        * E F G H g I J K 5 5 5 5 L 5 M N O P Q R S T U         ",
"      V W X Y g Z `  ...+.@.#.$.%.&.*.=...-.;.>.g ,.'.).!.      ",
"      ~.{.].g ^./.(._.:.<.[.}.|.1.2.3.4.5.6.7.8.9.g 0.a.b.c.    ",
"    d.e.f.Q g.h.i.j.k.l.m.n.o.p.q.r.s.t.u.v.w.x.y.9.z.A.B.^     ",
"  C.D.E.F.G.H.I.J.K.L.M.N.O.P.Q.R.S.T.U.V.W.X.Y.Z.`. +.+++@+#+  ",
"  0 $+%+g &+*+=+-+;+>+,+'+)+!+~+{+]+^+)+/+(+_+:+<+[+}+|+1+2+%   ",
"  C 3+4+5+6+7+8+9+0+'+a+b+c+d+e+f+g+h+f+a+f+i+j+k+l+m+n+o+p+q+  ",
"r+s+t+u+v+w+x+y+z+A+B+C+D+E+F+G+H+I+J+K+L+M+N+O+P+Q+R+S+T+U+V+W+",
"X+Y+Z+`+ @.@+@@@#@$@%@&@*@=@-@;@>@,@'@)@#@!@~@{@]@^@/@(@`+_@:@<@",
"[@}@|@P 1@2@3@4@5@6@7@8@9@0@a@b@c@d@e@f@g@h@i@j@.@k@l@m@P n@o@p@",
"q@r@s@g t@u@v@w@x@y@z@A@B@C@D@E@F@G@H@I@J@K@L@M@N@a+O@P@g Q@R@r+",
"S@T@U@g V@W@X@Y@Z@`@ #.#+#@#8+##$#%#&#*#=#-#;#>#,#'#)#!#g ~#{#]#",
"^#/#(#g _#:#<#[#}#|#1#2#3#4#5#6#7#8#9#0#a#b#c#d#e#k@f#g#g h#i#j#",
"k#l#m#g n#o#p#q#r#s#t#u#v#w#x#y#z#A#B#C#D#E#F#G#H#I#J#K#g L#b.% ",
"M#N#O#g 5+P#Q#R#S#T#U#V#-#i+W#b+'#X#~+k@Y#L@Z#`# $.$+$@$g #$$$%$",
"  &$*$=$g -$;$>$,$'$)$!$~${$]$^$/$]$($_$:$<$[$}$|$1$2$3$4$5$6$  ",
"  7$8$9$g 0$a$b$c$d$e$f$g$h$i$j$j$i$h$g$k$l$m$n$o$p$q$g r$s$t$  ",
"  u$v$w$x$g y$z$A$B$C$D$E$F$G$H$I$J$K$L$M$N$O$P$Q$R$`+S$T$U$V$  ",
"    W$X$Y$g Z$`$ %.%+%@%#%$%%%%%%%&%$%*%=%-%;%>%,%'%g )%!%b.    ",
"    ~%{%q@]%g 5+^%/%(%_%:%<%[%}%|%}%<%1%2%3%4%5%6%g 7%8%9%q+    ",
"      0%a%b%c%g d%e%f%g%h%i%j%k%k%j%l%m%n%o%p%5+g ]%q%r%c.      ",
"        s%9%t%u%g v%w%x%y%z%A%B%C%D%E%F%G%H%`+g I%J%K%L%        ",
"          + M%N%O%P%g |+Q%R%S%T%U%V%W%X%3$g Y%Z%`% &.&          ",
"            +&@&#&$&%&&&g g g P P g g g *&=&-&= , ;&            ",
"              >&C ,&'&)&!&~&{&]&^&/&(&_&:&<&X+[&/               ",
"                  }&|&1&2&3&4&5&6&7&).D.^ 8&9&                  ",
"                        / 0&a&a&b&a&( L%                        "};
